<?xml version="1.0" encoding="utf-8"?>
<!-- Generator: Adobe Illustrator 21.0.0, SVG Export Plug-In . SVG Version: 6.00 Build 0)  -->
<svg version="1.1" xmlns="http://www.w3.org/2000/svg" xmlns:xlink="http://www.w3.org/1999/xlink" x="0px" y="0px"
	 viewBox="0 0 1920 1080" style="enable-background:new 0 0 1920 1080;" xml:space="preserve">
<style type="text/css">
	.st0{fill:#5A6666;}
	.st1{fill:none;}
	.st2{fill:#1BCCCF;}
	.st3{font-family:'MyriadPro-Regular';}
	.st4{font-size:25.3887px;}
	.st5{fill:#1BCCCF;stroke:#1BCCCF;stroke-miterlimit:10;}
	.st6{fill:none;stroke:#1BCCCF;stroke-width:5;stroke-miterlimit:10;}
</style>
<g id="Lager_1">
</g>
<g id="Lager_2">
</g>
<g id="Lager_3">
	<g>
		<g id="Lager_1_1_">
			<path class="st0" d="M1392.1,907.9H480c-14,0-25.4-11.4-25.4-25.4V155.7c0-14,11.4-25.4,25.4-25.4h912.1
				c14,0,25.4,11.4,25.4,25.4v727C1417.5,896.4,1406.1,907.9,1392.1,907.9z"/>
		</g>
		<rect x="484.9" y="162.3" class="st1" width="74.9" height="146.4"/>
		<text transform="matrix(1 0 0 1 496.4238 180.4122)" class="st2 st3 st4">0101</text>
		<text transform="matrix(1 0 0 1 496.4238 210.879)" class="st2 st3 st4">0100</text>
		<text transform="matrix(1 0 0 1 496.4238 241.3458)" class="st2 st3 st4">0110</text>
		<text transform="matrix(1 0 0 1 496.4238 271.8116)" class="st2 st3 st4">0110</text>
		<text transform="matrix(1 0 0 1 496.4238 302.2784)" class="st2 st3 st4">0110</text>
		<rect x="560" y="162.3" class="st1" width="69.6" height="146.4"/>
		<text transform="matrix(1 0 0 1 568.7089 180.4122)" class="st2 st3 st4">0010</text>
		<text transform="matrix(1 0 0 1 568.7089 210.879)" class="st2 st3 st4">1010</text>
		<text transform="matrix(1 0 0 1 568.7089 241.3458)" class="st2 st3 st4">0011</text>
		<text transform="matrix(1 0 0 1 568.7089 271.8116)" class="st2 st3 st4">0010</text>
		<text transform="matrix(1 0 0 1 568.7089 302.2784)" class="st2 st3 st4">0101</text>
		<rect x="629.6" y="162.3" class="st1" width="69.6" height="146.4"/>
		<text transform="matrix(1 0 0 1 638.3173 180.4132)" class="st2 st3 st4">0010</text>
		<text transform="matrix(1 0 0 1 638.3173 210.879)" class="st2 st3 st4">0110</text>
		<text transform="matrix(1 0 0 1 638.3173 241.3458)" class="st2 st3 st4">0110</text>
		<text transform="matrix(1 0 0 1 638.3173 271.8126)" class="st2 st3 st4">0111</text>
		<text transform="matrix(1 0 0 1 638.3173 302.2784)" class="st2 st3 st4">0110</text>
		<rect x="699.2" y="162.3" class="st1" width="69.6" height="146.4"/>
		<text transform="matrix(1 0 0 1 707.9257 180.4132)" class="st2 st3 st4">1110</text>
		<text transform="matrix(1 0 0 1 707.9257 210.88)" class="st2 st3 st4">0001</text>
		<text transform="matrix(1 0 0 1 707.9257 241.3468)" class="st2 st3 st4">1111</text>
		<text transform="matrix(1 0 0 1 707.9257 271.8126)" class="st2 st3 st4">0011</text>
		<text transform="matrix(1 0 0 1 707.9257 302.2794)" class="st2 st3 st4">1110</text>
		<g>
			<path class="st5" d="M1210,722.4c-12,9.9-19.7,23.5-28.2,36.3c-4.2,6.4-8.7,12.8-14.1,18.2c-5.3,5.3-12.9,10.4-20.8,8.6
				c-7.5-1.7-13.5-8.7-13.6-16.4c0-2.5-3.9-2.5-3.9,0c0.1,7.5,4.5,14.4,11,18c7.2,4.1,15.5,2.9,22.3-1.3c7.2-4.4,12.7-11.3,17.6-18
				c5-6.9,9.4-14.2,14.1-21.2c5.3-7.9,11.1-15.4,18.4-21.5C1214.7,723.5,1211.9,720.8,1210,722.4z"/>
			<path class="st5" d="M1255.9,705.2c-5.9-11.4-18.4-16.8-30.4-19c-12.6-2.3-25.6-2.1-38.2,0.2c-14.3,2.6-28,8.1-40.1,16.1
				c-2.1,1.4-0.1,4.8,2,3.4c19.6-13,43.5-19,66.9-17c11.4,1,24.1,3.7,32.2,12.3c3.7,3.9,6.4,9,6.7,14.4c0.3,5.2-1.7,10.2-5.3,14
				c-9.4,10.3-24.2,10.7-37.2,10.3c-2.5-0.1-2.5,3.8,0,3.9c12.8,0.4,26.4-0.1,36.8-8.4c4.3-3.5,7.7-8.2,9-13.7
				C1259.6,716.1,1258.5,710.3,1255.9,705.2z"/>
			<g>
				<path class="st5" d="M1274.7,799.2c-12,9.9-19.7,23.5-28.2,36.3c-4.2,6.4-8.7,12.8-14.1,18.2c-5.3,5.3-12.9,10.4-20.8,8.6
					c-7.5-1.7-13.5-8.7-13.6-16.4c0-2.5-3.9-2.5-3.9,0c0.1,7.5,4.5,14.4,11,18c7.2,4.1,15.5,2.9,22.3-1.3c7.2-4.4,12.7-11.3,17.6-18
					c5-6.9,9.4-14.2,14.1-21.2c5.3-7.9,11.1-15.4,18.4-21.5C1279.5,800.3,1276.7,797.6,1274.7,799.2z"/>
				<path class="st5" d="M1320.6,782c-5.9-11.4-18.4-16.8-30.4-19c-12.6-2.3-25.6-2.1-38.2,0.2c-14.3,2.6-28,8.1-40.1,16.1
					c-2.1,1.4-0.1,4.8,2,3.4c19.6-13,43.5-19,66.9-17c11.4,1,24.1,3.7,32.2,12.3c3.7,3.9,6.4,9,6.7,14.4c0.3,5.2-1.7,10.2-5.3,14
					c-9.4,10.3-24.2,10.7-37.2,10.3c-2.5-0.1-2.5,3.8,0,3.9c12.8,0.4,26.4-0.1,36.8-8.4c4.3-3.5,7.7-8.2,9-13.7
					C1324.3,792.9,1323.2,787.1,1320.6,782z"/>
			</g>
		</g>
		<g>
			<circle class="st6" cx="1352.6" cy="271.8" r="36"/>
			<circle class="st6" cx="1249.4" cy="271.8" r="36"/>
			<circle class="st6" cx="1043.1" cy="271.8" r="36"/>
			<circle class="st6" cx="939.9" cy="271.8" r="36"/>
			<circle class="st6" cx="1146.3" cy="271.8" r="36"/>
		</g>
		<g>
			<circle class="st6" cx="580.4" cy="432.5" r="36"/>
			<circle class="st6" cx="580.4" cy="535.7" r="36"/>
			<circle class="st6" cx="580.4" cy="742" r="36"/>
			<circle class="st6" cx="580.4" cy="845.2" r="36"/>
			<circle class="st6" cx="580.4" cy="638.8" r="36"/>
		</g>
		<line class="st6" x1="1352.6" y1="235.8" x2="1352.6" y2="162.3"/>
		<line class="st6" x1="803.1" y1="162.5" x2="1357.9" y2="162.5"/>
		<line class="st6" x1="544.4" y1="845.2" x2="491.1" y2="845.2"/>
		<line class="st6" x1="496.4" y1="322.8" x2="496.4" y2="845.2"/>
		<line class="st6" x1="808.4" y1="322.8" x2="491.2" y2="322.8"/>
		<line class="st6" x1="803.1" y1="157.2" x2="803.1" y2="322.8"/>
		<line class="st6" x1="1146.3" y1="235.7" x2="1146.3" y2="193.8"/>
		<line class="st6" x1="846.9" y1="199.1" x2="1141" y2="199.1"/>
		<line class="st6" x1="580.4" y1="396.5" x2="580.4" y2="351.8"/>
		<line class="st6" x1="852.2" y1="357.1" x2="852.2" y2="204.3"/>
		<line class="st6" x1="575.1" y1="351.8" x2="846.9" y2="351.8"/>
		<line class="st6" x1="616.4" y1="742" x2="1048.3" y2="743.9"/>
		<line class="st6" x1="1249.4" y1="307.8" x2="1249.4" y2="616.8"/>
		<line class="st6" x1="1043.1" y1="611.6" x2="1249.4" y2="611.6"/>
		<line class="st6" x1="1043.1" y1="743.9" x2="1043.1" y2="606.4"/>
		<line class="st6" x1="616.4" y1="535.7" x2="790.4" y2="535.7"/>
		<line class="st6" x1="790.4" y1="427.2" x2="790.4" y2="540.9"/>
		<line class="st6" x1="939.9" y1="432.5" x2="790.4" y2="432.5"/>
		<line class="st6" x1="939.9" y1="307.8" x2="939.9" y2="437.2"/>
		<line class="st6" x1="1043.1" y1="307.8" x2="1043.1" y2="540.9"/>
		<line class="st6" x1="930.8" y1="535.7" x2="1043.1" y2="535.7"/>
		<line class="st6" x1="936.1" y1="644.1" x2="936.1" y2="535.7"/>
		<line class="st6" x1="616.4" y1="638.8" x2="936.1" y2="638.8"/>
	</g>
</g>
</svg>
